<?xml version='1.0' encoding='UTF-8'?>
<svg width="41mm" height="41mm" version="1.1" viewBox="0 0 41 41" xmlns="http://www.w3.org/2000/svg"><rect fill="white" x="0" y="0" width="100%" height="100%" /><path d="M4,4H5V5H4zM5,4H6V5H5zM6,4H7V5H6zM7,4H8V5H7zM8,4H9V5H8zM9,4H10V5H9zM10,4H11V5H10zM16,4H17V5H16zM17,4H18V5H17zM18,4H19V5H18zM21,4H22V5H21zM22,4H23V5H22zM26,4H27V5H26zM30,4H31V5H30zM31,4H32V5H31zM32,4H33V5H32zM33,4H34V5H33zM34,4H35V5H34zM35,4H36V5H35zM36,4H37V5H36zM4,5H5V6H4zM10,5H11V6H10zM12,5H13V6H12zM15,5H16V6H15zM16,5H17V6H16zM20,5H21V6H20zM22,5H23V6H22zM25,5H26V6H25zM26,5H27V6H26zM30,5H31V6H30zM36,5H37V6H36zM4,6H5V7H4zM6,6H7V7H6zM7,6H8V7H7zM8,6H9V7H8zM10,6H11V7H10zM12,6H13V7H12zM13,6H14V7H13zM14,6H15V7H14zM16,6H17V7H16zM18,6H19V7H18zM20,6H21V7H20zM23,6H24V7H23zM24,6H25V7H24zM25,6H26V7H25zM30,6H31V7H30zM32,6H33V7H32zM33,6H34V7H33zM34,6H35V7H34zM36,6H37V7H36zM4,7H5V8H4zM6,7H7V8H6zM7,7H8V8H7zM8,7H9V8H8zM10,7H11V8H10zM12,7H13V8H12zM13,7H14V8H13zM14,7H15V8H14zM18,7H19V8H18zM19,7H20V8H19zM20,7H21V8H20zM22,7H23V8H22zM23,7H24V8H23zM24,7H25V8H24zM25,7H26V8H25zM28,7H29V8H28zM30,7H31V8H30zM32,7H33V8H32zM33,7H34V8H33zM34,7H35V8H34zM36,7H37V8H36zM4,8H5V9H4zM6,8H7V9H6zM7,8H8V9H7zM8,8H9V9H8zM10,8H11V9H10zM15,8H16V9H15zM16,8H17V9H16zM17,8H18V9H17zM18,8H19V9H18zM19,8H20V9H19zM20,8H21V9H20zM24,8H25V9H24zM25,8H26V9H25zM26,8H27V9H26zM27,8H28V9H27zM30,8H31V9H30zM32,8H33V9H32zM33,8H34V9H33zM34,8H35V9H34zM36,8H37V9H36zM4,9H5V10H4zM10,9H11V10H10zM13,9H14V10H13zM16,9H17V10H16zM18,9H19V10H18zM19,9H20V10H19zM22,9H23V10H22zM23,9H24V10H23zM25,9H26V10H25zM30,9H31V10H30zM36,9H37V10H36zM4,10H5V11H4zM5,10H6V11H5zM6,10H7V11H6zM7,10H8V11H7zM8,10H9V11H8zM9,10H10V11H9zM10,10H11V11H10zM12,10H13V11H12zM14,10H15V11H14zM16,10H17V11H16zM18,10H19V11H18zM20,10H21V11H20zM22,10H23V11H22zM24,10H25V11H24zM26,10H27V11H26zM28,10H29V11H28zM30,10H31V11H30zM31,10H32V11H31zM32,10H33V11H32zM33,10H34V11H33zM34,10H35V11H34zM35,10H36V11H35zM36,10H37V11H36zM12,11H13V12H12zM13,11H14V12H13zM14,11H15V12H14zM19,11H20V12H19zM20,11H21V12H20zM23,11H24V12H23zM24,11H25V12H24zM4,12H5V13H4zM10,12H11V13H10zM12,12H13V13H12zM13,12H14V13H13zM14,12H15V13H14zM15,12H16V13H15zM16,12H17V13H16zM17,12H18V13H17zM18,12H19V13H18zM21,12H22V13H21zM23,12H24V13H23zM29,12H30V13H29zM30,12H31V13H30zM33,12H34V13H33zM34,12H35V13H34zM35,12H36V13H35zM4,13H5V14H4zM5,13H6V14H5zM6,13H7V14H6zM7,13H8V14H7zM8,13H9V14H8zM13,13H14V14H13zM14,13H15V14H14zM17,13H18V14H17zM18,13H19V14H18zM19,13H20V14H19zM21,13H22V14H21zM22,13H23V14H22zM23,13H24V14H23zM26,13H27V14H26zM27,13H28V14H27zM32,13H33V14H32zM33,13H34V14H33zM34,13H35V14H34zM4,14H5V15H4zM6,14H7V15H6zM7,14H8V15H7zM9,14H10V15H9zM10,14H11V15H10zM12,14H13V15H12zM13,14H14V15H13zM16,14H17V15H16zM17,14H18V15H17zM18,14H19V15H18zM19,14H20V15H19zM21,14H22V15H21zM24,14H25V15H24zM25,14H26V15H25zM26,14H27V15H26zM28,14H29V15H28zM29,14H30V15H29zM30,14H31V15H30zM32,14H33V15H32zM34,14H35V15H34zM35,14H36V15H35zM4,15H5V16H4zM8,15H9V16H8zM13,15H14V16H13zM14,15H15V16H14zM15,15H16V16H15zM17,15H18V16H17zM21,15H22V16H21zM22,15H23V16H22zM28,15H29V16H28zM29,15H30V16H29zM30,15H31V16H30zM31,15H32V16H31zM32,15H33V16H32zM33,15H34V16H33zM34,15H35V16H34zM35,15H36V16H35zM36,15H37V16H36zM8,16H9V17H8zM10,16H11V17H10zM12,16H13V17H12zM13,16H14V17H13zM14,16H15V17H14zM15,16H16V17H15zM17,16H18V17H17zM19,16H20V17H19zM21,16H22V17H21zM24,16H25V17H24zM26,16H27V17H26zM28,16H29V17H28zM30,16H31V17H30zM31,16H32V17H31zM4,17H5V18H4zM8,17H9V18H8zM11,17H12V18H11zM13,17H14V18H13zM15,17H16V18H15zM21,17H22V18H21zM22,17H23V18H22zM25,17H26V18H25zM27,17H28V18H27zM29,17H30V18H29zM30,17H31V18H30zM31,17H32V18H31zM33,17H34V18H33zM34,17H35V18H34zM35,17H36V18H35zM36,17H37V18H36zM4,18H5V19H4zM10,18H11V19H10zM15,18H16V19H15zM16,18H17V19H16zM17,18H18V19H17zM19,18H20V19H19zM20,18H21V19H20zM21,18H22V19H21zM24,18H25V19H24zM26,18H27V19H26zM29,18H30V19H29zM30,18H31V19H30zM31,18H32V19H31zM33,18H34V19H33zM35,18H36V19H35zM7,19H8V20H7zM8,19H9V20H8zM9,19H10V20H9zM13,19H14V20H13zM15,19H16V20H15zM16,19H17V20H16zM20,19H21V20H20zM22,19H23V20H22zM23,19H24V20H23zM24,19H25V20H24zM26,19H27V20H26zM27,19H28V20H27zM29,19H30V20H29zM33,19H34V20H33zM34,19H35V20H34zM36,19H37V20H36zM5,20H6V21H5zM10,20H11V21H10zM13,20H14V21H13zM15,20H16V21H15zM17,20H18V21H17zM19,20H20V21H19zM20,20H21V21H20zM21,20H22V21H21zM26,20H27V21H26zM28,20H29V21H28zM29,20H30V21H29zM31,20H32V21H31zM32,20H33V21H32zM33,20H34V21H33zM36,20H37V21H36zM6,21H7V22H6zM8,21H9V22H8zM9,21H10V22H9zM14,21H15V22H14zM16,21H17V22H16zM18,21H19V22H18zM19,21H20V22H19zM20,21H21V22H20zM22,21H23V22H22zM23,21H24V22H23zM24,21H25V22H24zM25,21H26V22H25zM27,21H28V22H27zM30,21H31V22H30zM33,21H34V22H33zM34,21H35V22H34zM36,21H37V22H36zM7,22H8V23H7zM8,22H9V23H8zM10,22H11V23H10zM11,22H12V23H11zM12,22H13V23H12zM13,22H14V23H13zM16,22H17V23H16zM17,22H18V23H17zM18,22H19V23H18zM19,22H20V23H19zM21,22H22V23H21zM22,22H23V23H22zM23,22H24V23H23zM25,22H26V23H25zM27,22H28V23H27zM28,22H29V23H28zM29,22H30V23H29zM30,22H31V23H30zM31,22H32V23H31zM33,22H34V23H33zM34,22H35V23H34zM35,22H36V23H35zM36,22H37V23H36zM7,23H8V24H7zM8,23H9V24H8zM11,23H12V24H11zM12,23H13V24H12zM17,23H18V24H17zM23,23H24V24H23zM24,23H25V24H24zM26,23H27V24H26zM29,23H30V24H29zM30,23H31V24H30zM32,23H33V24H32zM33,23H34V24H33zM34,23H35V24H34zM35,23H36V24H35zM36,23H37V24H36zM4,24H5V25H4zM6,24H7V25H6zM7,24H8V25H7zM9,24H10V25H9zM10,24H11V25H10zM11,24H12V25H11zM12,24H13V25H12zM13,24H14V25H13zM14,24H15V25H14zM15,24H16V25H15zM16,24H17V25H16zM19,24H20V25H19zM22,24H23V25H22zM23,24H24V25H23zM24,24H25V25H24zM26,24H27V25H26zM28,24H29V25H28zM31,24H32V25H31zM32,24H33V25H32zM33,24H34V25H33zM35,24H36V25H35zM36,24H37V25H36zM4,25H5V26H4zM6,25H7V26H6zM8,25H9V26H8zM12,25H13V26H12zM13,25H14V26H13zM15,25H16V26H15zM18,25H19V26H18zM21,25H22V26H21zM23,25H24V26H23zM26,25H27V26H26zM27,25H28V26H27zM31,25H32V26H31zM32,25H33V26H32zM34,25H35V26H34zM4,26H5V27H4zM6,26H7V27H6zM8,26H9V27H8zM10,26H11V27H10zM11,26H12V27H11zM12,26H13V27H12zM17,26H18V27H17zM18,26H19V27H18zM21,26H22V27H21zM29,26H30V27H29zM31,26H32V27H31zM35,26H36V27H35zM4,27H5V28H4zM8,27H9V28H8zM12,27H13V28H12zM13,27H14V28H13zM16,27H17V28H16zM19,27H20V28H19zM20,27H21V28H20zM22,27H23V28H22zM24,27H25V28H24zM26,27H27V28H26zM28,27H29V28H28zM29,27H30V28H29zM30,27H31V28H30zM33,27H34V28H33zM34,27H35V28H34zM35,27H36V28H35zM36,27H37V28H36zM4,28H5V29H4zM5,28H6V29H5zM8,28H9V29H8zM9,28H10V29H9zM10,28H11V29H10zM11,28H12V29H11zM13,28H14V29H13zM15,28H16V29H15zM16,28H17V29H16zM18,28H19V29H18zM20,28H21V29H20zM23,28H24V29H23zM24,28H25V29H24zM27,28H28V29H27zM28,28H29V29H28zM29,28H30V29H29zM30,28H31V29H30zM31,28H32V29H31zM32,28H33V29H32zM33,28H34V29H33zM35,28H36V29H35zM36,28H37V29H36zM12,29H13V30H12zM14,29H15V30H14zM15,29H16V30H15zM17,29H18V30H17zM19,29H20V30H19zM20,29H21V30H20zM21,29H22V30H21zM22,29H23V30H22zM23,29H24V30H23zM25,29H26V30H25zM27,29H28V30H27zM28,29H29V30H28zM32,29H33V30H32zM34,29H35V30H34zM36,29H37V30H36zM4,30H5V31H4zM5,30H6V31H5zM6,30H7V31H6zM7,30H8V31H7zM8,30H9V31H8zM9,30H10V31H9zM10,30H11V31H10zM13,30H14V31H13zM15,30H16V31H15zM17,30H18V31H17zM19,30H20V31H19zM20,30H21V31H20zM21,30H22V31H21zM24,30H25V31H24zM25,30H26V31H25zM26,30H27V31H26zM27,30H28V31H27zM28,30H29V31H28zM30,30H31V31H30zM32,30H33V31H32zM34,30H35V31H34zM35,30H36V31H35zM4,31H5V32H4zM10,31H11V32H10zM13,31H14V32H13zM14,31H15V32H14zM15,31H16V32H15zM17,31H18V32H17zM21,31H22V32H21zM22,31H23V32H22zM27,31H28V32H27zM28,31H29V32H28zM32,31H33V32H32zM33,31H34V32H33zM34,31H35V32H34zM36,31H37V32H36zM4,32H5V33H4zM6,32H7V33H6zM7,32H8V33H7zM8,32H9V33H8zM10,32H11V33H10zM13,32H14V33H13zM16,32H17V33H16zM17,32H18V33H17zM20,32H21V33H20zM23,32H24V33H23zM26,32H27V33H26zM28,32H29V33H28zM29,32H30V33H29zM30,32H31V33H30zM31,32H32V33H31zM32,32H33V33H32zM33,32H34V33H33zM35,32H36V33H35zM36,32H37V33H36zM4,33H5V34H4zM6,33H7V34H6zM7,33H8V34H7zM8,33H9V34H8zM10,33H11V34H10zM13,33H14V34H13zM15,33H16V34H15zM17,33H18V34H17zM18,33H19V34H18zM22,33H23V34H22zM23,33H24V34H23zM24,33H25V34H24zM25,33H26V34H25zM27,33H28V34H27zM28,33H29V34H28zM29,33H30V34H29zM31,33H32V34H31zM32,33H33V34H32zM34,33H35V34H34zM35,33H36V34H35zM36,33H37V34H36zM4,34H5V35H4zM6,34H7V35H6zM7,34H8V35H7zM8,34H9V35H8zM10,34H11V35H10zM14,34H15V35H14zM15,34H16V35H15zM16,34H17V35H16zM18,34H19V35H18zM19,34H20V35H19zM21,34H22V35H21zM22,34H23V35H22zM23,34H24V35H23zM27,34H28V35H27zM29,34H30V35H29zM31,34H32V35H31zM32,34H33V35H32zM34,34H35V35H34zM35,34H36V35H35zM36,34H37V35H36zM4,35H5V36H4zM10,35H11V36H10zM14,35H15V36H14zM16,35H17V36H16zM23,35H24V36H23zM24,35H25V36H24zM26,35H27V36H26zM29,35H30V36H29zM30,35H31V36H30zM31,35H32V36H31zM32,35H33V36H32zM33,35H34V36H33zM34,35H35V36H34zM4,36H5V37H4zM5,36H6V37H5zM6,36H7V37H6zM7,36H8V37H7zM8,36H9V37H8zM9,36H10V37H9zM10,36H11V37H10zM12,36H13V37H12zM17,36H18V37H17zM19,36H20V37H19zM21,36H22V37H21zM22,36H23V37H22zM23,36H24V37H23zM26,36H27V37H26zM27,36H28V37H27zM28,36H29V37H28zM29,36H30V37H29zM31,36H32V37H31zM33,36H34V37H33zM35,36H36V37H35z" id="qr-path" fill="#000000" fill-opacity="1" fill-rule="nonzero" stroke="none" /></svg>